<?xml version="1.0" encoding="UTF-8"?>
<svg id="mount" xmlns="http://www.w3.org/2000/svg" viewBox="0 0 40 40">
  <defs>
    <style>
      .cls-1 {
        fill: #e6e7e8;
      }
    </style>
  </defs>
  <path class="cls-1" d="M17.54,36.8c-3.01,0-6.03,.03-9.04,0-2.1-.02-3.68-.99-4.64-2.88-.36-.69-.51-1.45-.51-2.23,0-6.08-.01-12.16,0-18.24,0-2.84,2.22-5.07,5.05-5.09,3.27-.03,6.55-.01,9.82,0,1.33,0,2.17,1.15,1.75,2.32-.26,.71-.91,1.13-1.79,1.13-2.42,0-4.83,0-7.25,0-.83,0-1.66,0-2.49,0-.99,.01-1.64,.65-1.64,1.63,0,6.09,0,12.19,0,18.28,0,.97,.65,1.63,1.61,1.63,6.09,0,12.19,0,18.28,0,.98,0,1.6-.66,1.6-1.67,0-3.22,0-6.43,0-9.65,0-.44,.06-.86,.31-1.23,.42-.61,1.02-.85,1.73-.72,.7,.12,1.15,.57,1.33,1.27,.05,.19,.07,.39,.07,.58,0,3.26,.02,6.51,0,9.77-.02,2.51-1.68,4.51-4.1,5.01-.39,.08-.8,.11-1.2,.11-2.96,0-5.93,0-8.89,0Z"/>
  <path class="cls-1" d="M33.24,9.34c-.16,.04-.23,.17-.33,.27-4.57,4.57-9.14,9.15-13.7,13.73-.47,.47-.99,.75-1.67,.61-1.3-.27-1.82-1.8-.95-2.8,.1-.12,.22-.22,.33-.34,4.52-4.53,9.04-9.06,13.56-13.59,.1-.1,.22-.18,.34-.29-.17-.16-.32-.11-.44-.11-1.72,0-3.43,0-5.15,0-.68,0-1.25-.22-1.64-.81-.63-.97-.1-2.3,1.02-2.57,.24-.06,.49-.07,.73-.07,3.11,0,6.21,0,9.32,0,1.39,0,2.06,.68,2.06,2.06,0,3.15,0,6.3,0,9.45,0,1-.52,1.69-1.37,1.88-.91,.19-1.81-.38-2-1.3-.05-.23-.06-.46-.06-.7,0-1.67,0-3.33,0-5,0-.14,.04-.28-.05-.41Z"/>
</svg>