<?xml version="1.0" encoding="UTF-8"?>
<svg id="logo" xmlns="http://www.w3.org/2000/svg" viewBox="0 0 48 48">
  <defs>
    <style>
      .cls-1 {
        fill: #b5e3f9;
      }

      .cls-1, .cls-2, .cls-3 {
        stroke: #231f20;
      }

      .cls-2 {
        fill: #407aae;
      }

      .cls-3 {
        fill: #71c9f2;
      }
    </style>
  </defs>
  <path class="cls-2" d="M8.01,31.68l3.52,6.1h7.04s3.87,6.71,3.87,6.71H7.66S.26,31.68,.26,31.68l7.39-12.81h7.58s-7.23,12.81-7.23,12.81Z"/>
  <path class="cls-3" d="M36.47,37.78l3.52-6.1-3.52-6.1,3.87-6.71,7.39,12.81-7.39,12.81h-14.79s-3.84-6.72-3.84-6.72h14.76Z"/>
  <path class="cls-1" d="M27.16,10.22h-7.04s-3.52,6.1-3.52,6.1h-7.75S16.25,3.51,16.25,3.51h14.79s7.39,12.81,7.39,12.81l-3.71,6.42-7.56-12.52Z"/>
</svg>