<?xml version="1.0" encoding="UTF-8"?>
<svg id="Layer_1" data-name="Layer 1" xmlns="http://www.w3.org/2000/svg" viewBox="0 0 300 91">
  <defs>
    <style>
      .cls-1, .cls-2 {
        fill: #fff;
      }

      .cls-3 {
        fill: #b5e3f9;
      }

      .cls-3, .cls-4, .cls-5, .cls-6, .cls-2 {
        stroke: #231f20;
      }

      .cls-4 {
        fill: #407aae;
      }

      .cls-5 {
        fill: none;
      }

      .cls-6 {
        fill: #71c9f2;
      }
    </style>
  </defs>
  <path class="cls-4" d="M40.71,47.83h-13.35s-6.68,11.56-6.68,11.56l6.68,11.56h13.35s7.34,12.72,7.34,12.72H20.02S6,59.4,6,59.4l14.02-24.28h21.39s2.95,6.74,2.95,6.74l-3.65,5.98Z"/>
  <path class="cls-6" d="M54.61,59.4l6.68,11.56h13.35s6.68-11.56,6.68-11.56l-6.68-11.56,7.34-12.72,14.02,24.28-14.02,24.28h-28.04s-10.7-18.53-10.7-18.53l4.37-5.92,7,.17Z"/>
  <path class="cls-3" d="M57,41.84l6.68-11.56-6.68-11.56h-13.35s-6.68,11.56-6.68,11.56h-14.69S36.3,6,36.3,6h28.04s14.02,24.28,14.02,24.28l-10.7,18.53-7.31-.82-3.35-6.15Z"/>
  <g>
    <path class="cls-2" d="M110.62,26.46c0,1.89-.23,3.57-.7,5.06s-1.17,2.75-2.09,3.79-2.07,1.83-3.44,2.37-2.94,.82-4.74,.82-3.31-.23-4.63-.69-2.42-1.17-3.3-2.12-1.54-2.16-1.98-3.62-.66-3.2-.66-5.2c0-1.84,.23-3.5,.7-4.97s1.17-2.72,2.09-3.75,2.07-1.82,3.44-2.37,2.95-.83,4.75-.83,3.24,.23,4.56,.69,2.42,1.16,3.3,2.11,1.55,2.15,2,3.59,.68,3.16,.68,5.12Zm-4.85,.25c0-1.2-.09-2.28-.28-3.26s-.51-1.82-.96-2.51-1.05-1.24-1.8-1.62-1.69-.57-2.81-.57-2.09,.21-2.85,.64-1.38,1-1.85,1.71-.8,1.55-.99,2.5-.29,1.97-.29,3.03c0,1.24,.09,2.36,.28,3.35s.5,1.84,.95,2.54,1.04,1.24,1.79,1.61,1.69,.55,2.83,.55,2.09-.21,2.85-.63,1.38-1,1.85-1.72,.8-1.57,.99-2.54,.29-2,.29-3.08Z"/>
    <path class="cls-2" d="M133.26,36.48c0,.27-.05,.51-.14,.72s-.22,.39-.38,.53-.35,.24-.56,.31-.44,.1-.66,.1h-1.97c-.41,0-.76-.04-1.06-.12s-.57-.23-.83-.45-.5-.51-.73-.88-.5-.85-.79-1.43l-5.66-10.63c-.33-.63-.66-1.32-1-2.05s-.64-1.44-.91-2.14h-.04c.05,.84,.08,1.68,.11,2.52s.04,1.7,.04,2.59v11.9c0,.12-.03,.22-.1,.32s-.18,.17-.33,.24-.37,.11-.64,.15-.62,.05-1.04,.05-.75-.02-1.02-.05-.48-.08-.63-.15-.26-.14-.32-.24-.09-.2-.09-.32V17.01c0-.55,.16-.96,.48-1.24s.72-.41,1.19-.41h2.48c.45,0,.82,.04,1.12,.11s.58,.2,.82,.38,.47,.42,.68,.73,.43,.69,.65,1.15l4.43,8.31c.26,.5,.51,1,.76,1.49s.5,.97,.73,1.46,.46,.96,.69,1.43,.44,.94,.65,1.41h.02c-.04-.82-.06-1.68-.08-2.57s-.03-1.74-.03-2.55v-10.67c0-.12,.04-.22,.11-.32s.19-.18,.35-.25,.38-.12,.65-.15,.62-.04,1.04-.04c.4,0,.73,.01,1,.04s.48,.08,.62,.15,.25,.15,.31,.25,.09,.2,.09,.32v20.44Z"/>
    <path class="cls-2" d="M151.7,36.29c0,.34-.01,.62-.04,.85s-.07,.41-.13,.55-.13,.24-.22,.31-.18,.1-.29,.1h-11.43c-.39,0-.71-.11-.98-.34s-.4-.6-.4-1.12V16.81c0-.52,.13-.89,.4-1.12s.59-.34,.98-.34h11.36c.11,0,.2,.03,.28,.09s.15,.16,.21,.31,.1,.33,.13,.56,.04,.52,.04,.87c0,.33-.01,.61-.04,.83s-.07,.41-.13,.55-.13,.24-.21,.31-.18,.1-.28,.1h-8.12v5.55h6.87c.11,0,.2,.03,.29,.1s.16,.16,.22,.3,.1,.32,.13,.54,.04,.51,.04,.83-.01,.62-.04,.84-.07,.4-.13,.54-.13,.23-.22,.29-.18,.09-.29,.09h-6.87v6.42h8.19c.11,0,.2,.03,.29,.1s.16,.17,.22,.31,.1,.33,.13,.55,.04,.51,.04,.85Z"/>
  </g>
  <g>
    <g>
      <path class="cls-1" d="M127.77,76.67h-4.69l-5.62-9.42c-.52-.88-1.02-1.62-1.5-2.24s-.98-1.12-1.49-1.51-1.05-.68-1.64-.86-1.25-.27-1.98-.27h-3.23v14.3h-3.94V43.06h10.03c1.47,0,2.82,.18,4.07,.55s2.32,.93,3.23,1.68c.91,.75,1.63,1.68,2.14,2.8s.77,2.43,.77,3.93c0,1.17-.18,2.25-.53,3.22s-.85,1.85-1.5,2.61-1.43,1.42-2.34,1.96-1.94,.96-3.08,1.25v.09c.56,.25,1.05,.54,1.46,.86s.81,.7,1.18,1.14,.75,.93,1.11,1.49,.78,1.2,1.23,1.93l6.3,10.1Zm-20.16-30.05v12.19h5.34c.98,0,1.89-.15,2.73-.45s1.56-.72,2.17-1.28,1.09-1.23,1.43-2.04,.52-1.71,.52-2.71c0-1.8-.58-3.2-1.75-4.21s-2.85-1.51-5.05-1.51h-5.39Z"/>
      <path class="cls-1" d="M155.91,75.48c-2.45,1.19-5.66,1.78-9.61,1.78-5.16,0-9.21-1.52-12.16-4.55s-4.43-7.07-4.43-12.12c0-5.38,1.66-9.73,4.98-13.08s7.63-5.02,12.93-5.02c3.28,0,6.05,.41,8.3,1.24v7.29c-2.25-1.34-4.81-2.02-7.69-2.02-3.16,0-5.7,.99-7.64,2.98s-2.91,4.67-2.91,8.06,.91,5.84,2.74,7.77,4.29,2.89,7.38,2.89,5.66-.72,8.11-2.16v6.91Z"/>
      <path class="cls-1" d="M181.79,76.67h-20.02V43.06h7.57v27.47h12.45v6.14Z"/>
      <path class="cls-1" d="M200.52,77.26c-4.81,0-8.73-1.57-11.77-4.7s-4.55-7.21-4.55-12.25c0-5.31,1.54-9.61,4.62-12.89s7.16-4.92,12.23-4.92c4.8,0,8.68,1.57,11.64,4.71s4.44,7.28,4.44,12.42-1.54,9.54-4.61,12.77-7.07,4.85-12.01,4.85Zm.33-28.24c-2.66,0-4.77,1-6.33,2.99s-2.34,4.63-2.34,7.91,.78,5.96,2.34,7.9,3.61,2.91,6.14,2.91,4.68-.94,6.21-2.82,2.3-4.5,2.3-7.84-.74-6.2-2.23-8.13-3.52-2.91-6.09-2.91Z"/>
      <path class="cls-1" d="M252.95,76.67h-7.64l-13.85-21.12c-.81-1.23-1.38-2.16-1.69-2.79h-.09c.12,1.19,.19,3,.19,5.44v18.47h-7.15V43.06h8.16l13.34,20.46c.61,.92,1.17,1.84,1.69,2.74h.09c-.12-.78-.19-2.32-.19-4.62v-18.59h7.15v33.61Z"/>
      <path class="cls-1" d="M280.79,76.67h-20.16V43.06h19.38v6.16h-11.81v7.48h10.99v6.14h-10.99v7.69h12.59v6.14Z"/>
    </g>
    <g>
      <path class="cls-5" d="M127.77,76.67h-4.69l-5.62-9.42c-.52-.88-1.02-1.62-1.5-2.24s-.98-1.12-1.49-1.51-1.05-.68-1.64-.86-1.25-.27-1.98-.27h-3.23v14.3h-3.94V43.06h10.03c1.47,0,2.82,.18,4.07,.55s2.32,.93,3.23,1.68c.91,.75,1.63,1.68,2.14,2.8s.77,2.43,.77,3.93c0,1.17-.18,2.25-.53,3.22s-.85,1.85-1.5,2.61-1.43,1.42-2.34,1.96-1.94,.96-3.08,1.25v.09c.56,.25,1.05,.54,1.46,.86s.81,.7,1.18,1.14,.75,.93,1.11,1.49,.78,1.2,1.23,1.93l6.3,10.1Zm-20.16-30.05v12.19h5.34c.98,0,1.89-.15,2.73-.45s1.56-.72,2.17-1.28,1.09-1.23,1.43-2.04,.52-1.71,.52-2.71c0-1.8-.58-3.2-1.75-4.21s-2.85-1.51-5.05-1.51h-5.39Z"/>
      <path class="cls-5" d="M155.91,75.48c-2.45,1.19-5.66,1.78-9.61,1.78-5.16,0-9.21-1.52-12.16-4.55s-4.43-7.07-4.43-12.12c0-5.38,1.66-9.73,4.98-13.08s7.63-5.02,12.93-5.02c3.28,0,6.05,.41,8.3,1.24v7.29c-2.25-1.34-4.81-2.02-7.69-2.02-3.16,0-5.7,.99-7.64,2.98s-2.91,4.67-2.91,8.06,.91,5.84,2.74,7.77,4.29,2.89,7.38,2.89,5.66-.72,8.11-2.16v6.91Z"/>
      <path class="cls-5" d="M181.79,76.67h-20.02V43.06h7.57v27.47h12.45v6.14Z"/>
      <path class="cls-5" d="M200.52,77.26c-4.81,0-8.73-1.57-11.77-4.7s-4.55-7.21-4.55-12.25c0-5.31,1.54-9.61,4.62-12.89s7.16-4.92,12.23-4.92c4.8,0,8.68,1.57,11.64,4.71s4.44,7.28,4.44,12.42-1.54,9.54-4.61,12.77-7.07,4.85-12.01,4.85Zm.33-28.24c-2.66,0-4.77,1-6.33,2.99s-2.34,4.63-2.34,7.91,.78,5.96,2.34,7.9,3.61,2.91,6.14,2.91,4.68-.94,6.21-2.82,2.3-4.5,2.3-7.84-.74-6.2-2.23-8.13-3.52-2.91-6.09-2.91Z"/>
      <path class="cls-5" d="M252.95,76.67h-7.64l-13.85-21.12c-.81-1.23-1.38-2.16-1.69-2.79h-.09c.12,1.19,.19,3,.19,5.44v18.47h-7.15V43.06h8.16l13.34,20.46c.61,.92,1.17,1.84,1.69,2.74h.09c-.12-.78-.19-2.32-.19-4.62v-18.59h7.15v33.61Z"/>
      <path class="cls-5" d="M280.79,76.67h-20.16V43.06h19.38v6.16h-11.81v7.48h10.99v6.14h-10.99v7.69h12.59v6.14Z"/>
    </g>
  </g>
</svg>