<?xml version="1.0" encoding="UTF-8"?>
<svg id="logo" xmlns="http://www.w3.org/2000/svg" viewBox="0 0 144 48">
  <defs>
    <style>
      .cls-1 {
        fill: #b5e3f9;
      }

      .cls-1, .cls-2, .cls-3, .cls-4 {
        stroke: #231f20;
      }

      .cls-2 {
        fill: #407aae;
      }

      .cls-3 {
        fill: #71c9f2;
      }

      .cls-4 {
        fill: #fff;
      }
    </style>
  </defs>
  <path class="cls-2" d="M8.01,31.68l3.52,6.1h7.04s3.87,6.71,3.87,6.71H7.66S.26,31.68,.26,31.68l7.39-12.81h7.58s-7.23,12.81-7.23,12.81Z"/>
  <path class="cls-3" d="M36.47,37.78l3.52-6.1-3.52-6.1,3.87-6.71,7.39,12.81-7.39,12.81h-14.79s-3.84-6.72-3.84-6.72h14.76Z"/>
  <path class="cls-1" d="M27.16,10.22h-7.04s-3.52,6.1-3.52,6.1h-7.75S16.25,3.51,16.25,3.51h14.79s7.39,12.81,7.39,12.81l-3.71,6.42-7.56-12.52Z"/>
  <g>
    <path class="cls-4" d="M70.26,40.8c-1.29,.63-2.98,.94-5.07,.94-2.72,0-4.86-.8-6.42-2.4s-2.34-3.73-2.34-6.39c0-2.84,.88-5.13,2.63-6.9s4.02-2.65,6.82-2.65c1.73,0,3.19,.22,4.38,.66v3.85c-1.19-.71-2.54-1.06-4.05-1.06-1.66,0-3.01,.52-4.03,1.57s-1.53,2.46-1.53,4.25,.48,3.08,1.45,4.1,2.26,1.53,3.89,1.53,2.98-.38,4.28-1.14v3.65Z"/>
    <path class="cls-4" d="M83.91,41.43h-10.56V23.7h3.99v14.49h6.56v3.24Z"/>
    <path class="cls-4" d="M93.15,41.74c-2.54,0-4.61-.83-6.21-2.48s-2.4-3.81-2.4-6.46c0-2.8,.81-5.07,2.44-6.8s3.77-2.6,6.45-2.6c2.53,0,4.58,.83,6.14,2.49,1.56,1.66,2.34,3.84,2.34,6.55s-.81,5.03-2.43,6.74c-1.62,1.71-3.73,2.56-6.34,2.56Zm.17-14.9c-1.4,0-2.51,.53-3.34,1.58s-1.24,2.44-1.24,4.17,.41,3.14,1.24,4.17,1.9,1.53,3.24,1.53,2.47-.5,3.28-1.49,1.21-2.37,1.21-4.14-.39-3.27-1.17-4.29-1.85-1.53-3.21-1.53Z"/>
    <path class="cls-4" d="M120.81,41.43h-4.03l-7.31-11.14c-.43-.65-.73-1.14-.89-1.47h-.05c.07,.63,.1,1.58,.1,2.87v9.74h-3.77V23.7h4.3l7.03,10.79c.32,.49,.62,.97,.89,1.45h.05c-.07-.41-.1-1.22-.1-2.44v-9.8h3.77v17.73Z"/>
    <path class="cls-4" d="M135.5,41.43h-10.63V23.7h10.22v3.25h-6.23v3.94h5.8v3.24h-5.8v4.05h6.64v3.24Z"/>
  </g>
  <g>
    <path class="cls-4" d="M55.37,22.16c-1.9,0-3.46-.62-4.65-1.86s-1.8-2.85-1.8-4.84c0-2.1,.61-3.8,1.83-5.1s2.83-1.95,4.84-1.95c1.9,0,3.43,.62,4.6,1.86s1.76,2.88,1.76,4.91-.61,3.77-1.82,5.05-2.8,1.92-4.75,1.92Zm.13-11.17c-1.05,0-1.89,.39-2.5,1.18s-.93,1.83-.93,3.13,.31,2.36,.93,3.12,1.43,1.15,2.43,1.15,1.85-.37,2.46-1.12,.91-1.78,.91-3.1-.29-2.45-.88-3.22-1.39-1.15-2.41-1.15Z"/>
    <path class="cls-4" d="M76.11,21.93h-3.02l-5.48-8.35c-.32-.49-.54-.86-.67-1.1h-.04c.05,.47,.07,1.19,.07,2.15v7.31h-2.83V8.63h3.23l5.28,8.09c.24,.36,.46,.73,.67,1.08h.04c-.05-.31-.07-.92-.07-1.83v-7.35h2.83v13.3Z"/>
    <path class="cls-4" d="M87.12,21.93h-7.97V8.63h7.67v2.44h-4.67v2.96h4.35v2.43h-4.35v3.04h4.98v2.43Z"/>
  </g>
</svg>